<mxfile host="app.diagrams.net" agent="Mozilla/5.0 (Windows NT 10.0; Win64; x64) AppleWebKit/537.36 (KHTML, like Gecko) Chrome/129.0.0.0 Safari/537.36" version="24.7.7">
  <diagram name="PÃ¡gina-1" id="sxU9SJG41bKWfpLmoG5H">
    <mxGraphModel dx="1635" dy="1824" grid="0" gridSize="10" guides="1" tooltips="1" connect="1" arrows="1" fold="1" page="0" pageScale="1" pageWidth="827" pageHeight="1169" background="none" math="0" shadow="0">
      <root>
        <mxCell id="0" />
        <mxCell id="1" parent="0" />
        <mxCell id="43odRK-0mdBbsiGqXCdP-1" style="edgeStyle=none;rounded=0;orthogonalLoop=1;jettySize=auto;html=1;exitX=1;exitY=0.5;exitDx=0;exitDy=0;entryX=0;entryY=0.5;entryDx=0;entryDy=0;" parent="1" source="B3-qdWBrj49GYKGrcbh7-1" target="B3-qdWBrj49GYKGrcbh7-6" edge="1">
          <mxGeometry relative="1" as="geometry" />
        </mxCell>
        <mxCell id="43odRK-0mdBbsiGqXCdP-6" style="edgeStyle=none;rounded=0;orthogonalLoop=1;jettySize=auto;html=1;exitX=1;exitY=1;exitDx=0;exitDy=0;entryX=0;entryY=0.5;entryDx=0;entryDy=0;" parent="1" source="B3-qdWBrj49GYKGrcbh7-1" target="43odRK-0mdBbsiGqXCdP-3" edge="1">
          <mxGeometry relative="1" as="geometry" />
        </mxCell>
        <mxCell id="43odRK-0mdBbsiGqXCdP-15" style="edgeStyle=none;rounded=0;orthogonalLoop=1;jettySize=auto;html=1;exitX=0.75;exitY=1;exitDx=0;exitDy=0;entryX=0;entryY=0.5;entryDx=0;entryDy=0;" parent="1" source="B3-qdWBrj49GYKGrcbh7-1" target="43odRK-0mdBbsiGqXCdP-13" edge="1">
          <mxGeometry relative="1" as="geometry" />
        </mxCell>
        <mxCell id="43odRK-0mdBbsiGqXCdP-22" style="edgeStyle=none;rounded=0;orthogonalLoop=1;jettySize=auto;html=1;exitX=0.5;exitY=1;exitDx=0;exitDy=0;entryX=0;entryY=0.5;entryDx=0;entryDy=0;" parent="1" source="B3-qdWBrj49GYKGrcbh7-1" target="43odRK-0mdBbsiGqXCdP-19" edge="1">
          <mxGeometry relative="1" as="geometry" />
        </mxCell>
        <mxCell id="43odRK-0mdBbsiGqXCdP-27" style="edgeStyle=none;rounded=0;orthogonalLoop=1;jettySize=auto;html=1;exitX=0;exitY=1;exitDx=0;exitDy=0;entryX=0.5;entryY=0;entryDx=0;entryDy=0;" parent="1" source="B3-qdWBrj49GYKGrcbh7-1" target="43odRK-0mdBbsiGqXCdP-26" edge="1">
          <mxGeometry relative="1" as="geometry" />
        </mxCell>
        <mxCell id="43odRK-0mdBbsiGqXCdP-41" style="edgeStyle=none;rounded=0;orthogonalLoop=1;jettySize=auto;html=1;entryX=0.5;entryY=1;entryDx=0;entryDy=0;" parent="1" source="B3-qdWBrj49GYKGrcbh7-1" target="43odRK-0mdBbsiGqXCdP-40" edge="1">
          <mxGeometry relative="1" as="geometry" />
        </mxCell>
        <mxCell id="43odRK-0mdBbsiGqXCdP-52" style="edgeStyle=none;rounded=0;orthogonalLoop=1;jettySize=auto;html=1;exitX=1;exitY=0;exitDx=0;exitDy=0;entryX=0.5;entryY=1;entryDx=0;entryDy=0;" parent="1" source="B3-qdWBrj49GYKGrcbh7-1" target="43odRK-0mdBbsiGqXCdP-51" edge="1">
          <mxGeometry relative="1" as="geometry" />
        </mxCell>
        <mxCell id="B3-qdWBrj49GYKGrcbh7-1" value="Usuario" style="rounded=0;whiteSpace=wrap;html=1;" parent="1" vertex="1">
          <mxGeometry x="-96" y="-276" width="160" height="80" as="geometry" />
        </mxCell>
        <mxCell id="43odRK-0mdBbsiGqXCdP-2" style="edgeStyle=none;rounded=0;orthogonalLoop=1;jettySize=auto;html=1;exitX=0;exitY=0.5;exitDx=0;exitDy=0;" parent="1" source="B3-qdWBrj49GYKGrcbh7-2" target="B3-qdWBrj49GYKGrcbh7-6" edge="1">
          <mxGeometry relative="1" as="geometry" />
        </mxCell>
        <mxCell id="43odRK-0mdBbsiGqXCdP-7" style="edgeStyle=none;rounded=0;orthogonalLoop=1;jettySize=auto;html=1;exitX=0;exitY=1;exitDx=0;exitDy=0;entryX=1;entryY=0.5;entryDx=0;entryDy=0;" parent="1" source="B3-qdWBrj49GYKGrcbh7-2" target="43odRK-0mdBbsiGqXCdP-3" edge="1">
          <mxGeometry relative="1" as="geometry" />
        </mxCell>
        <mxCell id="43odRK-0mdBbsiGqXCdP-16" style="edgeStyle=none;rounded=0;orthogonalLoop=1;jettySize=auto;html=1;exitX=0.25;exitY=1;exitDx=0;exitDy=0;entryX=1;entryY=0.5;entryDx=0;entryDy=0;" parent="1" source="B3-qdWBrj49GYKGrcbh7-2" target="43odRK-0mdBbsiGqXCdP-13" edge="1">
          <mxGeometry relative="1" as="geometry" />
        </mxCell>
        <mxCell id="43odRK-0mdBbsiGqXCdP-21" style="edgeStyle=none;rounded=0;orthogonalLoop=1;jettySize=auto;html=1;exitX=0.5;exitY=1;exitDx=0;exitDy=0;entryX=1;entryY=0.5;entryDx=0;entryDy=0;" parent="1" source="B3-qdWBrj49GYKGrcbh7-2" target="43odRK-0mdBbsiGqXCdP-19" edge="1">
          <mxGeometry relative="1" as="geometry" />
        </mxCell>
        <mxCell id="43odRK-0mdBbsiGqXCdP-34" style="edgeStyle=none;rounded=0;orthogonalLoop=1;jettySize=auto;html=1;exitX=1;exitY=1;exitDx=0;exitDy=0;entryX=0.5;entryY=0;entryDx=0;entryDy=0;" parent="1" source="B3-qdWBrj49GYKGrcbh7-2" target="43odRK-0mdBbsiGqXCdP-35" edge="1">
          <mxGeometry relative="1" as="geometry">
            <mxPoint x="323" y="305" as="targetPoint" />
          </mxGeometry>
        </mxCell>
        <mxCell id="43odRK-0mdBbsiGqXCdP-46" style="edgeStyle=none;rounded=0;orthogonalLoop=1;jettySize=auto;html=1;exitX=0.5;exitY=0;exitDx=0;exitDy=0;entryX=0.5;entryY=1;entryDx=0;entryDy=0;" parent="1" source="B3-qdWBrj49GYKGrcbh7-2" target="43odRK-0mdBbsiGqXCdP-45" edge="1">
          <mxGeometry relative="1" as="geometry" />
        </mxCell>
        <mxCell id="B3-qdWBrj49GYKGrcbh7-2" value="Receita" style="rounded=0;whiteSpace=wrap;html=1;" parent="1" vertex="1">
          <mxGeometry x="324" y="-276" width="160" height="80" as="geometry" />
        </mxCell>
        <mxCell id="B3-qdWBrj49GYKGrcbh7-6" value="possui" style="rhombus;whiteSpace=wrap;html=1;" parent="1" vertex="1">
          <mxGeometry x="149" y="-276" width="80" height="80" as="geometry" />
        </mxCell>
        <mxCell id="B3-qdWBrj49GYKGrcbh7-7" value="1" style="text;strokeColor=none;fillColor=none;html=1;align=center;verticalAlign=middle;whiteSpace=wrap;rounded=0;fontSize=16;" parent="1" vertex="1">
          <mxGeometry x="61" y="-271" width="60" height="30" as="geometry" />
        </mxCell>
        <mxCell id="B3-qdWBrj49GYKGrcbh7-8" value="n" style="text;strokeColor=none;fillColor=none;html=1;align=center;verticalAlign=middle;whiteSpace=wrap;rounded=0;fontSize=16;" parent="1" vertex="1">
          <mxGeometry x="267" y="-271" width="60" height="30" as="geometry" />
        </mxCell>
        <mxCell id="43odRK-0mdBbsiGqXCdP-3" value="denuncia" style="rhombus;whiteSpace=wrap;html=1;" parent="1" vertex="1">
          <mxGeometry x="153" y="-39" width="80" height="80" as="geometry" />
        </mxCell>
        <mxCell id="43odRK-0mdBbsiGqXCdP-4" value="n" style="text;strokeColor=none;fillColor=none;html=1;align=center;verticalAlign=middle;whiteSpace=wrap;rounded=0;fontSize=16;" parent="1" vertex="1">
          <mxGeometry x="304" y="-199" width="60" height="30" as="geometry" />
        </mxCell>
        <mxCell id="43odRK-0mdBbsiGqXCdP-5" value="n" style="text;strokeColor=none;fillColor=none;html=1;align=center;verticalAlign=middle;whiteSpace=wrap;rounded=0;fontSize=16;" parent="1" vertex="1">
          <mxGeometry x="19" y="-196" width="60" height="30" as="geometry" />
        </mxCell>
        <mxCell id="43odRK-0mdBbsiGqXCdP-37" style="edgeStyle=none;rounded=0;orthogonalLoop=1;jettySize=auto;html=1;exitX=0.5;exitY=0;exitDx=0;exitDy=0;entryX=0.5;entryY=1;entryDx=0;entryDy=0;" parent="1" source="43odRK-0mdBbsiGqXCdP-9" target="43odRK-0mdBbsiGqXCdP-26" edge="1">
          <mxGeometry relative="1" as="geometry" />
        </mxCell>
        <mxCell id="43odRK-0mdBbsiGqXCdP-9" value="Adm" style="whiteSpace=wrap;html=1;" parent="1" vertex="1">
          <mxGeometry x="-177" y="358" width="120" height="60" as="geometry" />
        </mxCell>
        <mxCell id="43odRK-0mdBbsiGqXCdP-42" style="edgeStyle=none;rounded=0;orthogonalLoop=1;jettySize=auto;html=1;exitX=0.5;exitY=1;exitDx=0;exitDy=0;" parent="1" source="43odRK-0mdBbsiGqXCdP-11" target="43odRK-0mdBbsiGqXCdP-40" edge="1">
          <mxGeometry relative="1" as="geometry" />
        </mxCell>
        <mxCell id="43odRK-0mdBbsiGqXCdP-48" style="edgeStyle=none;rounded=0;orthogonalLoop=1;jettySize=auto;html=1;exitX=1;exitY=1;exitDx=0;exitDy=0;entryX=0.5;entryY=0;entryDx=0;entryDy=0;" parent="1" source="43odRK-0mdBbsiGqXCdP-11" target="43odRK-0mdBbsiGqXCdP-45" edge="1">
          <mxGeometry relative="1" as="geometry" />
        </mxCell>
        <mxCell id="43odRK-0mdBbsiGqXCdP-53" style="edgeStyle=none;rounded=0;orthogonalLoop=1;jettySize=auto;html=1;exitX=0.75;exitY=1;exitDx=0;exitDy=0;entryX=0.5;entryY=0;entryDx=0;entryDy=0;" parent="1" source="43odRK-0mdBbsiGqXCdP-11" target="43odRK-0mdBbsiGqXCdP-51" edge="1">
          <mxGeometry relative="1" as="geometry" />
        </mxCell>
        <mxCell id="43odRK-0mdBbsiGqXCdP-11" value="Comentario" style="whiteSpace=wrap;html=1;" parent="1" vertex="1">
          <mxGeometry x="-76" y="-665" width="120" height="60" as="geometry" />
        </mxCell>
        <mxCell id="43odRK-0mdBbsiGqXCdP-12" value="motivo" style="ellipse;whiteSpace=wrap;html=1;" parent="1" vertex="1">
          <mxGeometry x="149" y="-71" width="89" height="32" as="geometry" />
        </mxCell>
        <mxCell id="43odRK-0mdBbsiGqXCdP-13" value="avalia" style="rhombus;whiteSpace=wrap;html=1;" parent="1" vertex="1">
          <mxGeometry x="153.5" y="98" width="80" height="80" as="geometry" />
        </mxCell>
        <mxCell id="43odRK-0mdBbsiGqXCdP-14" value="valor" style="ellipse;whiteSpace=wrap;html=1;" parent="1" vertex="1">
          <mxGeometry x="149" y="66" width="89" height="32" as="geometry" />
        </mxCell>
        <mxCell id="43odRK-0mdBbsiGqXCdP-17" value="n" style="text;strokeColor=none;fillColor=none;html=1;align=center;verticalAlign=middle;whiteSpace=wrap;rounded=0;fontSize=16;" parent="1" vertex="1">
          <mxGeometry x="342" y="-199" width="60" height="30" as="geometry" />
        </mxCell>
        <mxCell id="43odRK-0mdBbsiGqXCdP-18" value="n" style="text;strokeColor=none;fillColor=none;html=1;align=center;verticalAlign=middle;whiteSpace=wrap;rounded=0;fontSize=16;" parent="1" vertex="1">
          <mxGeometry x="-15" y="-196" width="60" height="30" as="geometry" />
        </mxCell>
        <mxCell id="43odRK-0mdBbsiGqXCdP-19" value="favorita" style="rhombus;whiteSpace=wrap;html=1;" parent="1" vertex="1">
          <mxGeometry x="153" y="202" width="80" height="80" as="geometry" />
        </mxCell>
        <mxCell id="43odRK-0mdBbsiGqXCdP-23" value="n" style="text;strokeColor=none;fillColor=none;html=1;align=center;verticalAlign=middle;whiteSpace=wrap;rounded=0;fontSize=16;" parent="1" vertex="1">
          <mxGeometry x="-60" y="-199" width="60" height="30" as="geometry" />
        </mxCell>
        <mxCell id="43odRK-0mdBbsiGqXCdP-24" value="n" style="text;strokeColor=none;fillColor=none;html=1;align=center;verticalAlign=middle;whiteSpace=wrap;rounded=0;fontSize=16;" parent="1" vertex="1">
          <mxGeometry x="392" y="-196" width="60" height="30" as="geometry" />
        </mxCell>
        <mxCell id="43odRK-0mdBbsiGqXCdP-26" value="bani" style="rhombus;whiteSpace=wrap;html=1;" parent="1" vertex="1">
          <mxGeometry x="-146" y="66" width="80" height="80" as="geometry" />
        </mxCell>
        <mxCell id="43odRK-0mdBbsiGqXCdP-29" value="n" style="text;strokeColor=none;fillColor=none;html=1;align=center;verticalAlign=middle;whiteSpace=wrap;rounded=0;fontSize=16;" parent="1" vertex="1">
          <mxGeometry x="-117" y="-196" width="60" height="30" as="geometry" />
        </mxCell>
        <mxCell id="43odRK-0mdBbsiGqXCdP-30" value="1" style="text;strokeColor=none;fillColor=none;html=1;align=center;verticalAlign=middle;whiteSpace=wrap;rounded=0;fontSize=16;" parent="1" vertex="1">
          <mxGeometry x="-170" y="323" width="60" height="30" as="geometry" />
        </mxCell>
        <mxCell id="43odRK-0mdBbsiGqXCdP-36" style="edgeStyle=none;rounded=0;orthogonalLoop=1;jettySize=auto;html=1;exitX=0;exitY=0;exitDx=0;exitDy=0;entryX=0;entryY=0.5;entryDx=0;entryDy=0;" parent="1" source="43odRK-0mdBbsiGqXCdP-32" target="43odRK-0mdBbsiGqXCdP-35" edge="1">
          <mxGeometry relative="1" as="geometry" />
        </mxCell>
        <mxCell id="43odRK-0mdBbsiGqXCdP-32" value="1" style="text;strokeColor=none;fillColor=none;html=1;align=center;verticalAlign=middle;whiteSpace=wrap;rounded=0;fontSize=16;" parent="1" vertex="1">
          <mxGeometry x="-57" y="395" width="60" height="30" as="geometry" />
        </mxCell>
        <mxCell id="43odRK-0mdBbsiGqXCdP-33" value="n" style="text;strokeColor=none;fillColor=none;html=1;align=center;verticalAlign=middle;whiteSpace=wrap;rounded=0;fontSize=16;" parent="1" vertex="1">
          <mxGeometry x="463" y="-166" width="60" height="30" as="geometry" />
        </mxCell>
        <mxCell id="43odRK-0mdBbsiGqXCdP-35" value="avalia" style="rhombus;whiteSpace=wrap;html=1;" parent="1" vertex="1">
          <mxGeometry x="267" y="311" width="80" height="80" as="geometry" />
        </mxCell>
        <mxCell id="43odRK-0mdBbsiGqXCdP-38" value="motivo_banimento" style="ellipse;whiteSpace=wrap;html=1;" parent="1" vertex="1">
          <mxGeometry x="-185" y="-225" width="89" height="32" as="geometry" />
        </mxCell>
        <mxCell id="43odRK-0mdBbsiGqXCdP-39" value="aprovada" style="ellipse;whiteSpace=wrap;html=1;" parent="1" vertex="1">
          <mxGeometry x="484" y="-228" width="89" height="32" as="geometry" />
        </mxCell>
        <mxCell id="43odRK-0mdBbsiGqXCdP-40" value="faz" style="rhombus;whiteSpace=wrap;html=1;" parent="1" vertex="1">
          <mxGeometry x="-53" y="-469" width="80" height="80" as="geometry" />
        </mxCell>
        <mxCell id="43odRK-0mdBbsiGqXCdP-43" value="n" style="text;strokeColor=none;fillColor=none;html=1;align=center;verticalAlign=middle;whiteSpace=wrap;rounded=0;fontSize=16;" parent="1" vertex="1">
          <mxGeometry x="-60" y="-605" width="60" height="30" as="geometry" />
        </mxCell>
        <mxCell id="43odRK-0mdBbsiGqXCdP-44" value="1" style="text;strokeColor=none;fillColor=none;html=1;align=center;verticalAlign=middle;whiteSpace=wrap;rounded=0;fontSize=16;" parent="1" vertex="1">
          <mxGeometry x="-66" y="-309" width="60" height="30" as="geometry" />
        </mxCell>
        <mxCell id="43odRK-0mdBbsiGqXCdP-45" value="tem" style="rhombus;whiteSpace=wrap;html=1;" parent="1" vertex="1">
          <mxGeometry x="357" y="-521" width="80" height="80" as="geometry" />
        </mxCell>
        <mxCell id="43odRK-0mdBbsiGqXCdP-49" value="n" style="text;strokeColor=none;fillColor=none;html=1;align=center;verticalAlign=middle;whiteSpace=wrap;rounded=0;fontSize=16;" parent="1" vertex="1">
          <mxGeometry x="39" y="-635" width="60" height="30" as="geometry" />
        </mxCell>
        <mxCell id="43odRK-0mdBbsiGqXCdP-50" value="1" style="text;strokeColor=none;fillColor=none;html=1;align=center;verticalAlign=middle;whiteSpace=wrap;rounded=0;fontSize=16;" parent="1" vertex="1">
          <mxGeometry x="392" y="-312" width="60" height="30" as="geometry" />
        </mxCell>
        <mxCell id="43odRK-0mdBbsiGqXCdP-51" value="denuncia" style="rhombus;whiteSpace=wrap;html=1;" parent="1" vertex="1">
          <mxGeometry x="73.5" y="-459" width="80" height="80" as="geometry" />
        </mxCell>
        <mxCell id="43odRK-0mdBbsiGqXCdP-56" value="n" style="text;strokeColor=none;fillColor=none;html=1;align=center;verticalAlign=middle;whiteSpace=wrap;rounded=0;fontSize=16;" parent="1" vertex="1">
          <mxGeometry x="-21" y="-607" width="60" height="30" as="geometry" />
        </mxCell>
        <mxCell id="43odRK-0mdBbsiGqXCdP-57" value="n" style="text;strokeColor=none;fillColor=none;html=1;align=center;verticalAlign=middle;whiteSpace=wrap;rounded=0;fontSize=16;" parent="1" vertex="1">
          <mxGeometry x="19" y="-309" width="60" height="30" as="geometry" />
        </mxCell>
        <mxCell id="43odRK-0mdBbsiGqXCdP-58" value="motivo" style="ellipse;whiteSpace=wrap;html=1;" parent="1" vertex="1">
          <mxGeometry x="153" y="-435" width="89" height="32" as="geometry" />
        </mxCell>
        <mxCell id="TMZTi5Sb_ULH1aG7cWoS-1" value="nome_receita" style="ellipse;whiteSpace=wrap;html=1;" parent="1" vertex="1">
          <mxGeometry x="480" y="-260" width="89" height="32" as="geometry" />
        </mxCell>
        <mxCell id="TMZTi5Sb_ULH1aG7cWoS-2" value="ingredientes" style="ellipse;whiteSpace=wrap;html=1;" parent="1" vertex="1">
          <mxGeometry x="480" y="-292" width="89" height="32" as="geometry" />
        </mxCell>
        <mxCell id="TMZTi5Sb_ULH1aG7cWoS-3" value="modo_prep" style="ellipse;whiteSpace=wrap;html=1;" parent="1" vertex="1">
          <mxGeometry x="480" y="-324" width="89" height="32" as="geometry" />
        </mxCell>
        <mxCell id="TMZTi5Sb_ULH1aG7cWoS-4" value="tempo_prep" style="ellipse;whiteSpace=wrap;html=1;" parent="1" vertex="1">
          <mxGeometry x="480" y="-356" width="89" height="32" as="geometry" />
        </mxCell>
        <mxCell id="TMZTi5Sb_ULH1aG7cWoS-5" value="img_receita" style="ellipse;whiteSpace=wrap;html=1;" parent="1" vertex="1">
          <mxGeometry x="480" y="-389" width="89" height="32" as="geometry" />
        </mxCell>
        <mxCell id="TMZTi5Sb_ULH1aG7cWoS-6" value="dificuldade" style="ellipse;whiteSpace=wrap;html=1;" parent="1" vertex="1">
          <mxGeometry x="480" y="-423" width="89" height="32" as="geometry" />
        </mxCell>
        <mxCell id="TMZTi5Sb_ULH1aG7cWoS-7" value="custo" style="ellipse;whiteSpace=wrap;html=1;" parent="1" vertex="1">
          <mxGeometry x="480" y="-457" width="89" height="32" as="geometry" />
        </mxCell>
        <mxCell id="TMZTi5Sb_ULH1aG7cWoS-8" value="categoria" style="ellipse;whiteSpace=wrap;html=1;" parent="1" vertex="1">
          <mxGeometry x="480" y="-491" width="89" height="32" as="geometry" />
        </mxCell>
        <mxCell id="TMZTi5Sb_ULH1aG7cWoS-9" value="id_receita" style="ellipse;whiteSpace=wrap;html=1;" parent="1" vertex="1">
          <mxGeometry x="480" y="-553" width="89" height="32" as="geometry" />
        </mxCell>
        <mxCell id="TMZTi5Sb_ULH1aG7cWoS-10" value="id_autor" style="ellipse;whiteSpace=wrap;html=1;" parent="1" vertex="1">
          <mxGeometry x="480" y="-521" width="89" height="32" as="geometry" />
        </mxCell>
        <mxCell id="TMZTi5Sb_ULH1aG7cWoS-12" value="" style="whiteSpace=wrap;html=1;" parent="1" vertex="1">
          <mxGeometry x="493.75" y="-529" width="61.5" height="1" as="geometry" />
        </mxCell>
        <mxCell id="TMZTi5Sb_ULH1aG7cWoS-13" value="email" style="ellipse;whiteSpace=wrap;html=1;" parent="1" vertex="1">
          <mxGeometry x="-185" y="-257" width="89" height="32" as="geometry" />
        </mxCell>
        <mxCell id="TMZTi5Sb_ULH1aG7cWoS-14" value="" style="rounded=0;whiteSpace=wrap;html=1;" parent="1" vertex="1">
          <mxGeometry x="-169.5" y="-233" width="59" height="1" as="geometry" />
        </mxCell>
        <mxCell id="TMZTi5Sb_ULH1aG7cWoS-15" value="senha" style="ellipse;whiteSpace=wrap;html=1;" parent="1" vertex="1">
          <mxGeometry x="-184.5" y="-285" width="89" height="32" as="geometry" />
        </mxCell>
        <mxCell id="TMZTi5Sb_ULH1aG7cWoS-16" value="img_user" style="ellipse;whiteSpace=wrap;html=1;" parent="1" vertex="1">
          <mxGeometry x="-184.5" y="-317" width="89" height="32" as="geometry" />
        </mxCell>
        <mxCell id="TMZTi5Sb_ULH1aG7cWoS-17" value="descricao" style="ellipse;whiteSpace=wrap;html=1;" parent="1" vertex="1">
          <mxGeometry x="-187" y="-349" width="89" height="32" as="geometry" />
        </mxCell>
        <mxCell id="TMZTi5Sb_ULH1aG7cWoS-18" value="banido" style="ellipse;whiteSpace=wrap;html=1;" parent="1" vertex="1">
          <mxGeometry x="-187" y="-379" width="89" height="32" as="geometry" />
        </mxCell>
        <mxCell id="TMZTi5Sb_ULH1aG7cWoS-21" value="email" style="ellipse;whiteSpace=wrap;html=1;" parent="1" vertex="1">
          <mxGeometry x="-170" y="418" width="89" height="32" as="geometry" />
        </mxCell>
        <mxCell id="TMZTi5Sb_ULH1aG7cWoS-22" value="senha" style="ellipse;whiteSpace=wrap;html=1;" parent="1" vertex="1">
          <mxGeometry x="-169.5" y="450" width="89" height="32" as="geometry" />
        </mxCell>
        <mxCell id="TMZTi5Sb_ULH1aG7cWoS-23" value="" style="whiteSpace=wrap;html=1;" parent="1" vertex="1">
          <mxGeometry x="-156" y="441" width="61" height="1" as="geometry" />
        </mxCell>
        <mxCell id="TMZTi5Sb_ULH1aG7cWoS-25" value="id_coment" style="ellipse;whiteSpace=wrap;html=1;" parent="1" vertex="1">
          <mxGeometry x="-66" y="-697" width="89" height="32" as="geometry" />
        </mxCell>
        <mxCell id="TMZTi5Sb_ULH1aG7cWoS-26" value="texto" style="ellipse;whiteSpace=wrap;html=1;" parent="1" vertex="1">
          <mxGeometry x="-65.99" y="-761" width="89" height="32" as="geometry" />
        </mxCell>
        <mxCell id="TMZTi5Sb_ULH1aG7cWoS-27" value="" style="whiteSpace=wrap;html=1;" parent="1" vertex="1">
          <mxGeometry x="-47.12" y="-672" width="51.25" height="1" as="geometry" />
        </mxCell>
        <mxCell id="5dQmtvNFmUMM3Hl9lPjz-2" value="data" style="ellipse;whiteSpace=wrap;html=1;" vertex="1" parent="1">
          <mxGeometry x="-65.99" y="-729" width="89" height="32" as="geometry" />
        </mxCell>
        <mxCell id="5dQmtvNFmUMM3Hl9lPjz-3" value="id_adm" style="ellipse;whiteSpace=wrap;html=1;" vertex="1" parent="1">
          <mxGeometry x="484" y="-198" width="89" height="32" as="geometry" />
        </mxCell>
        <mxCell id="5dQmtvNFmUMM3Hl9lPjz-4" value="id_adm" style="ellipse;whiteSpace=wrap;html=1;" vertex="1" parent="1">
          <mxGeometry x="-184" y="-193" width="89" height="32" as="geometry" />
        </mxCell>
        <mxCell id="5dQmtvNFmUMM3Hl9lPjz-5" value="id_receita" style="ellipse;whiteSpace=wrap;html=1;" vertex="1" parent="1">
          <mxGeometry x="-62" y="-793" width="89" height="32" as="geometry" />
        </mxCell>
        <mxCell id="5dQmtvNFmUMM3Hl9lPjz-6" value="id_autor" style="ellipse;whiteSpace=wrap;html=1;" vertex="1" parent="1">
          <mxGeometry x="-62" y="-825" width="89" height="32" as="geometry" />
        </mxCell>
        <mxCell id="5dQmtvNFmUMM3Hl9lPjz-7" value="nome_usuario" style="ellipse;whiteSpace=wrap;html=1;" vertex="1" parent="1">
          <mxGeometry x="-184" y="-411" width="89" height="32" as="geometry" />
        </mxCell>
      </root>
    </mxGraphModel>
  </diagram>
</mxfile>
